<svg id="svg" version="1.1" xmlns="http://www.w3.org/2000/svg" xmlns:xlink="http://www.w3.org/1999/xlink" width="400" height="400" viewBox="0, 0, 400,400"><g id="svgg"><path id="path0" d="M230.229 159.189 C 230.109 159.382,229.902 160.962,229.768 162.700 L 229.526 165.858 231.059 168.652 C 232.847 171.911,232.922 172.458,231.654 173.036 C 230.592 173.520,230.639 175.734,231.759 177.938 C 234.658 183.643,238.062 196.975,237.085 198.800 C 236.855 199.229,236.667 200.782,236.667 202.249 C 236.667 205.430,236.051 212.661,235.525 215.668 C 234.957 218.906,237.452 226.486,240.064 229.461 C 243.006 232.812,245.600 233.022,249.573 230.233 C 251.132 229.138,255.248 226.341,258.720 224.016 C 288.440 204.117,294.374 190.927,280.026 176.664 C 274.113 170.787,260.518 163.921,252.497 162.762 C 250.509 162.475,245.426 161.580,241.200 160.774 C 231.289 158.882,230.490 158.767,230.229 159.189 M249.074 175.984 C 250.296 176.179,252.546 176.484,254.074 176.664 C 255.602 176.843,257.778 177.313,258.909 177.709 C 260.041 178.105,261.708 178.553,262.613 178.704 C 263.668 178.881,264.725 179.399,265.556 180.147 C 266.270 180.789,268.103 182.001,269.631 182.840 C 272.821 184.594,274.445 185.972,274.444 186.927 C 274.443 189.821,269.494 195.894,264.148 199.563 C 262.376 200.779,260.548 202.289,260.086 202.918 C 259.624 203.547,258.707 204.333,258.049 204.665 C 257.391 204.997,255.733 206.025,254.365 206.950 C 251.020 209.212,250.914 209.098,250.589 202.868 C 250.149 194.450,248.191 186.211,244.786 178.452 C 243.495 175.513,243.612 175.015,245.505 175.375 C 246.246 175.516,247.852 175.790,249.074 175.984 M142.963 175.800 C 138.888 176.197,133.331 177.578,124.771 180.320 C 121.027 181.520,117.046 182.711,115.926 182.967 C 114.806 183.223,113.606 183.727,113.260 184.087 C 112.914 184.448,111.747 185.032,110.667 185.386 C 101.483 188.394,98.372 192.136,98.370 200.177 C 98.369 207.888,101.517 210.189,114.074 211.653 C 116.620 211.949,119.221 212.347,119.854 212.536 C 120.487 212.726,121.432 212.799,121.954 212.699 C 122.486 212.597,123.934 212.915,125.248 213.421 C 126.537 213.918,128.825 214.792,130.332 215.364 C 135.162 217.198,135.537 218.377,132.407 221.885 C 131.287 223.140,130.370 224.298,130.370 224.457 C 130.370 224.875,122.220 229.259,118.519 230.832 C 114.230 232.655,111.388 233.325,107.364 233.463 C 102.579 233.627,102.447 233.811,102.674 240.000 C 103.005 249.032,105.357 250.513,116.324 248.591 C 123.459 247.341,134.267 241.610,139.771 236.156 C 146.142 229.845,148.317 220.492,144.626 215.280 C 143.939 214.311,143.037 212.906,142.621 212.157 C 142.205 211.407,141.540 210.692,141.145 210.566 C 140.639 210.406,140.304 209.773,140.017 208.437 C 139.314 205.159,137.711 203.249,134.849 202.278 C 134.155 202.042,133.355 201.519,133.072 201.115 C 132.773 200.688,131.444 200.049,129.890 199.585 C 125.710 198.338,124.280 196.208,127.315 195.750 C 128.079 195.634,129.787 195.216,131.111 194.819 C 138.113 192.724,141.684 192.223,143.085 193.141 C 143.775 193.593,144.470 193.626,147.053 193.329 C 151.178 192.854,156.183 192.867,158.468 193.357 C 162.880 194.303,166.614 190.205,164.262 186.999 C 163.755 186.307,163.072 185.157,162.746 184.444 C 160.935 180.489,158.349 177.064,156.852 176.637 C 153.530 175.692,147.690 175.340,142.963 175.800 " stroke="none" fill="#142ca4" fill-rule="evenodd"></path><path id="path1" d="M314.697 102.863 C 314.348 103.224,313.378 104.571,312.540 105.858 C 303.741 119.372,278.839 133.910,243.148 146.370 C 227.004 152.006,218.992 156.468,211.621 163.927 C 204.948 170.680,200.370 178.984,200.370 184.337 C 200.370 185.007,200.204 185.556,200.000 185.556 C 199.796 185.556,199.627 185.014,199.624 184.352 C 199.614 182.075,198.502 178.420,196.845 175.210 C 186.108 154.421,159.170 150.415,124.152 164.400 C 109.619 170.203,105.782 171.087,93.889 171.373 C 84.728 171.593,73.473 171.018,71.957 170.252 C 70.566 169.549,70.000 169.832,70.000 171.231 C 70.000 171.874,67.917 192.680,65.370 217.466 C 60.536 264.522,60.495 264.990,61.140 265.388 C 63.229 266.679,72.305 267.534,84.259 267.565 C 99.511 267.605,102.705 267.010,122.778 260.383 C 162.090 247.405,180.925 250.094,194.314 270.597 C 196.242 273.549,198.593 278.089,199.000 279.644 C 199.428 281.280,200.518 280.255,202.593 276.267 C 216.054 250.392,234.845 246.393,277.222 260.383 C 297.295 267.010,300.489 267.605,315.741 267.565 C 327.695 267.534,336.771 266.679,338.860 265.388 C 339.529 264.975,339.370 263.165,334.503 215.926 L 329.790 170.185 326.858 170.278 C 325.245 170.329,323.769 170.528,323.578 170.719 C 323.361 170.935,323.601 178.372,324.214 190.441 C 325.491 215.599,325.661 212.559,322.870 214.546 C 307.624 225.403,280.715 235.210,247.479 242.025 C 240.898 243.375,235.083 244.642,234.557 244.842 C 234.031 245.042,233.537 245.142,233.459 245.064 C 233.121 244.726,239.333 242.791,247.963 240.545 C 278.126 232.697,308.242 219.574,319.133 209.535 C 321.130 207.695,321.214 214.759,318.475 154.074 C 316.119 101.861,316.086 101.425,314.697 102.863 M238.333 159.518 C 247.889 161.326,253.151 162.222,254.211 162.222 C 258.366 162.222,275.778 171.323,280.407 175.915 C 295.291 190.679,288.922 204.954,258.513 224.987 C 255.353 227.069,251.453 229.715,249.847 230.867 C 245.695 233.846,242.449 233.531,239.477 229.860 C 236.723 226.460,234.182 218.860,234.777 215.809 C 235.264 213.313,235.936 205.329,235.930 202.105 C 235.928 200.717,236.114 199.229,236.344 198.800 C 237.325 196.968,233.921 183.706,230.960 177.816 C 229.913 175.735,229.922 173.452,230.980 172.681 L 231.940 171.982 230.415 169.018 C 228.797 165.877,228.648 164.850,229.224 160.801 C 229.652 157.793,229.401 157.829,238.333 159.518 M156.296 175.662 C 158.315 176.141,158.354 176.177,160.556 179.563 C 167.030 189.518,167.187 190.417,162.917 193.087 C 160.734 194.451,160.663 194.468,158.614 194.089 C 156.042 193.613,150.351 193.609,146.729 194.079 C 144.536 194.364,143.808 194.326,142.951 193.883 C 141.264 193.010,137.312 193.581,131.296 195.564 C 130.074 195.967,128.611 196.296,128.044 196.296 C 125.286 196.296,126.416 197.769,130.016 198.866 C 131.387 199.284,132.815 200.004,133.304 200.524 C 133.778 201.029,134.665 201.552,135.273 201.686 C 137.572 202.191,140.710 206.067,140.733 208.430 C 140.737 208.890,141.090 209.557,141.516 209.911 C 142.292 210.556,144.238 213.273,145.869 215.989 C 147.095 218.031,147.429 223.788,146.490 226.697 C 142.622 238.678,125.535 249.496,109.919 249.850 C 103.813 249.989,102.260 248.107,101.950 240.199 C 101.683 233.400,101.990 232.969,107.244 232.763 C 117.607 232.357,135.859 222.176,133.644 218.037 C 133.045 216.918,123.170 213.096,121.801 213.454 C 121.393 213.561,120.279 213.426,119.326 213.155 C 118.372 212.883,115.676 212.473,113.333 212.242 C 101.132 211.042,97.543 208.137,97.650 199.550 C 97.747 191.805,100.585 188.310,109.348 185.141 C 111.031 184.533,112.611 183.768,112.861 183.442 C 113.110 183.115,115.027 182.404,117.120 181.862 C 119.213 181.320,123.843 179.944,127.407 178.806 C 139.469 174.953,148.969 173.919,156.296 175.662 M244.815 176.422 C 244.815 176.722,245.304 178.058,245.902 179.390 C 248.856 185.976,250.873 194.651,251.320 202.695 C 251.627 208.219,251.559 208.122,253.916 206.432 C 254.920 205.713,256.407 204.782,257.222 204.364 C 258.037 203.946,259.266 202.951,259.953 202.153 C 260.640 201.355,262.390 199.897,263.842 198.914 C 268.945 195.456,272.336 191.622,273.384 188.124 C 273.940 186.269,273.741 186.038,269.385 183.474 C 267.492 182.360,265.474 181.054,264.900 180.570 C 264.326 180.087,263.197 179.570,262.391 179.420 C 261.585 179.271,260.009 178.829,258.889 178.439 C 257.769 178.049,255.602 177.584,254.074 177.404 C 250.508 176.986,246.293 176.337,245.463 176.078 C 245.047 175.949,244.815 176.072,244.815 176.422 M66.858 176.732 C 66.760 177.002,65.677 180.972,64.450 185.556 L 62.220 193.889 58.316 236.296 C 54.208 280.915,54.207 280.926,55.331 280.926 C 55.922 280.926,56.310 279.937,57.803 274.618 L 59.574 268.310 64.068 223.390 C 66.540 198.684,68.511 178.024,68.448 177.479 C 68.326 176.422,67.166 175.878,66.858 176.732 M331.600 176.893 C 331.462 177.251,333.393 197.971,335.890 222.939 L 340.429 268.333 342.198 274.630 C 343.690 279.938,344.078 280.926,344.669 280.926 C 345.793 280.926,345.792 280.916,341.684 236.296 L 337.779 193.889 335.443 185.186 C 333.112 176.504,332.366 174.895,331.600 176.893 M152.593 257.442 C 142.760 258.289,136.257 259.861,119.815 265.366 C 101.320 271.557,98.840 272.015,83.889 271.988 C 73.320 271.969,66.626 271.482,63.442 270.502 C 62.381 270.176,61.298 269.992,61.034 270.094 C 60.609 270.259,53.270 296.846,53.316 298.056 C 53.330 298.425,82.923 298.519,200.000 298.519 C 317.077 298.519,346.670 298.425,346.684 298.056 C 346.730 296.846,339.391 270.259,338.966 270.094 C 338.702 269.992,337.619 270.176,336.558 270.502 C 333.374 271.482,326.680 271.969,316.111 271.988 C 301.160 272.015,298.680 271.557,280.185 265.366 C 236.179 250.634,214.887 254.596,202.548 279.815 C 201.352 282.259,200.373 284.468,200.372 284.722 C 200.371 284.977,200.204 285.185,200.000 285.185 C 199.796 285.185,199.630 284.967,199.630 284.701 C 199.630 283.542,194.646 274.348,192.434 271.428 C 183.304 259.373,172.834 255.698,152.593 257.442 " stroke="none" fill="#fbfbfb" fill-rule="evenodd"></path><path id="path2" d="M229.841 158.730 C 229.521 159.050,229.281 159.842,229.308 160.489 L 229.357 161.667 229.586 160.380 C 229.739 159.517,230.120 158.940,230.741 158.626 C 231.374 158.307,231.470 158.157,231.045 158.154 C 230.703 158.151,230.161 158.410,229.841 158.730 M235.370 159.259 C 235.981 159.415,236.898 159.542,237.407 159.542 C 238.233 159.542,238.213 159.511,237.222 159.259 C 236.611 159.104,235.694 158.977,235.185 158.977 C 234.359 158.977,234.379 159.007,235.370 159.259 M241.296 160.370 C 242.863 160.769,244.208 160.769,242.963 160.370 C 242.454 160.207,241.620 160.077,241.111 160.081 C 240.279 160.087,240.298 160.116,241.296 160.370 M248.148 161.694 C 249.472 161.965,250.972 162.177,251.481 162.163 C 251.991 162.150,251.241 161.918,249.815 161.648 C 248.389 161.378,246.889 161.166,246.481 161.178 C 246.074 161.190,246.824 161.422,248.148 161.694 M229.004 164.259 C 229.006 165.481,229.075 165.937,229.157 165.271 C 229.240 164.605,229.238 163.605,229.154 163.049 C 229.069 162.492,229.002 163.037,229.004 164.259 M253.241 162.484 C 253.699 162.572,254.449 162.572,254.907 162.484 C 255.366 162.395,254.991 162.323,254.074 162.323 C 253.157 162.323,252.782 162.395,253.241 162.484 M258.889 164.074 C 259.602 164.464,260.352 164.784,260.556 164.784 C 260.759 164.784,260.343 164.464,259.630 164.074 C 258.917 163.684,258.167 163.364,257.963 163.364 C 257.759 163.364,258.176 163.684,258.889 164.074 M261.852 165.370 C 262.361 165.661,262.944 165.900,263.148 165.900 C 263.352 165.900,263.102 165.661,262.593 165.370 C 262.083 165.079,261.500 164.841,261.296 164.841 C 261.093 164.841,261.343 165.079,261.852 165.370 M229.326 166.852 C 229.394 167.056,230.008 168.295,230.691 169.605 L 231.931 171.988 230.966 172.692 C 230.435 173.079,230.013 173.673,230.029 174.012 C 230.053 174.519,230.095 174.530,230.263 174.074 C 230.375 173.769,230.881 173.177,231.388 172.760 L 232.308 172.001 231.169 169.797 C 230.082 167.692,229.064 166.066,229.326 166.852 M266.667 167.407 C 267.380 167.798,268.130 168.117,268.333 168.117 C 268.537 168.117,268.120 167.798,267.407 167.407 C 266.694 167.017,265.944 166.698,265.741 166.698 C 265.537 166.698,265.954 167.017,266.667 167.407 M269.863 168.858 C 271.562 169.894,273.333 170.783,273.333 170.600 C 273.333 170.391,269.355 168.148,268.987 168.150 C 268.831 168.150,269.225 168.469,269.863 168.858 M276.852 173.011 C 279.957 175.600,282.225 177.912,283.557 179.847 C 285.104 182.093,285.570 182.467,284.558 180.650 C 283.730 179.165,277.560 172.887,276.296 172.245 C 275.736 171.961,275.956 172.264,276.852 173.011 M146.032 175.089 C 147.211 175.163,149.044 175.162,150.106 175.087 C 151.168 175.013,150.204 174.953,147.963 174.953 C 145.722 174.954,144.853 175.015,146.032 175.089 M230.376 175.772 C 230.379 176.366,230.541 177.102,230.736 177.407 C 230.977 177.786,231.018 177.490,230.863 176.481 C 230.582 174.651,230.369 174.339,230.376 175.772 M141.209 175.451 C 141.772 175.536,142.605 175.534,143.061 175.446 C 143.516 175.358,143.056 175.288,142.037 175.291 C 141.019 175.294,140.646 175.366,141.209 175.451 M152.875 175.447 C 153.335 175.536,154.002 175.532,154.356 175.440 C 154.710 175.347,154.333 175.274,153.519 175.279 C 152.704 175.283,152.414 175.359,152.875 175.447 M244.460 176.389 C 244.475 177.189,245.892 180.203,245.897 179.444 C 245.899 179.241,245.661 178.657,245.370 178.148 C 244.449 176.536,244.645 175.920,246.019 176.115 C 247.078 176.266,247.111 176.247,246.296 175.958 C 244.795 175.425,244.444 175.508,244.460 176.389 M136.481 176.118 C 136.278 176.192,134.729 176.616,133.039 177.060 C 131.349 177.504,130.026 177.927,130.098 178.000 C 130.171 178.072,132.137 177.643,134.467 177.045 C 136.797 176.448,138.287 175.965,137.778 175.972 C 137.269 175.979,136.685 176.045,136.481 176.118 M157.222 176.192 C 157.630 176.292,158.296 176.647,158.704 176.983 C 159.438 177.588,159.439 177.586,158.739 176.759 C 158.351 176.301,157.684 175.945,157.257 175.969 C 156.511 176.010,156.510 176.019,157.222 176.192 M248.060 176.558 C 248.521 176.647,249.187 176.643,249.541 176.551 C 249.895 176.458,249.519 176.386,248.704 176.390 C 247.889 176.394,247.599 176.470,248.060 176.558 M251.111 177.040 C 252.027 177.330,255.823 177.532,255.525 177.274 C 255.440 177.201,254.204 177.052,252.778 176.943 C 251.271 176.829,250.573 176.869,251.111 177.040 M160.056 179.280 C 160.521 180.107,161.127 180.970,161.403 181.200 C 161.679 181.429,161.368 180.753,160.712 179.697 C 159.297 177.420,158.852 177.138,160.056 179.280 M259.074 178.519 C 260.093 178.894,261.259 179.206,261.667 179.211 C 262.074 179.215,261.407 178.898,260.185 178.504 C 257.380 177.601,256.615 177.611,259.074 178.519 M124.074 179.815 C 122.139 180.496,120.729 181.066,120.940 181.082 C 121.152 181.098,122.985 180.540,125.014 179.843 C 127.043 179.145,128.454 178.575,128.148 178.576 C 127.843 178.576,126.009 179.134,124.074 179.815 M263.099 179.523 C 263.479 179.621,264.543 180.275,265.463 180.977 C 266.383 181.680,267.655 182.499,268.290 182.799 C 268.925 183.099,269.131 183.133,268.748 182.876 C 268.365 182.618,267.073 181.699,265.877 180.833 C 264.680 179.968,263.410 179.279,263.055 179.302 C 262.484 179.340,262.490 179.366,263.099 179.523 M231.928 180.000 C 233.053 183.228,233.835 185.177,233.956 185.056 C 234.128 184.885,232.314 179.954,231.967 179.650 C 231.839 179.537,231.821 179.694,231.928 180.000 M245.952 180.185 C 245.952 180.389,246.190 180.972,246.481 181.481 C 246.773 181.991,247.011 182.241,247.011 182.037 C 247.011 181.833,246.773 181.250,246.481 180.741 C 246.190 180.231,245.952 179.981,245.952 180.185 M285.771 183.391 C 286.103 184.034,286.596 185.159,286.865 185.891 C 287.135 186.623,287.365 186.972,287.378 186.667 C 287.404 186.023,285.693 182.222,285.378 182.222 C 285.261 182.222,285.438 182.748,285.771 183.391 M113.081 183.189 C 112.955 183.518,112.335 184.011,111.704 184.286 C 110.983 184.600,110.803 184.791,111.221 184.800 C 111.586 184.808,112.289 184.411,112.782 183.919 C 113.275 183.426,113.976 182.945,114.339 182.850 C 114.845 182.719,114.802 182.668,114.155 182.636 C 113.689 182.612,113.207 182.860,113.081 183.189 M247.249 183.333 C 247.386 183.843,247.651 184.509,247.840 184.815 C 248.079 185.201,248.108 185.088,247.936 184.444 C 247.800 183.935,247.534 183.269,247.345 182.963 C 247.106 182.577,247.077 182.690,247.249 183.333 M270.133 183.783 C 274.306 186.669,274.259 186.548,272.537 189.995 C 271.106 192.857,267.820 196.259,264.027 198.806 C 262.473 199.849,260.640 201.355,259.953 202.153 C 259.266 202.951,258.037 203.946,257.222 204.364 C 255.575 205.209,251.883 207.778,252.315 207.778 C 252.467 207.778,253.383 207.214,254.351 206.526 C 255.319 205.837,256.778 204.933,257.593 204.515 C 258.407 204.098,259.539 203.162,260.107 202.435 C 260.676 201.709,262.342 200.302,263.811 199.310 C 269.011 195.798,272.700 191.643,273.760 188.107 C 274.275 186.388,273.674 185.516,271.017 184.128 C 270.152 183.676,269.755 183.520,270.133 183.783 M162.974 183.815 C 162.953 184.364,164.020 186.161,164.683 186.694 C 165.221 187.125,165.202 187.019,164.579 186.111 C 164.160 185.500,163.630 184.667,163.401 184.259 C 163.173 183.852,162.980 183.652,162.974 183.815 M108.704 185.383 C 107.778 185.829,107.747 185.881,108.519 185.692 C 109.568 185.436,110.748 184.835,110.185 184.843 C 109.981 184.846,109.315 185.089,108.704 185.383 M234.110 185.556 C 234.096 185.657,234.322 186.491,234.610 187.407 C 234.899 188.324,235.139 188.741,235.144 188.333 C 235.151 187.688,234.175 185.065,234.110 185.556 M248.200 185.926 C 248.200 186.231,248.343 186.815,248.519 187.222 C 248.719 187.689,248.837 187.758,248.837 187.407 C 248.837 187.102,248.694 186.519,248.519 186.111 C 248.318 185.644,248.200 185.576,248.200 185.926 M105.833 186.508 C 104.397 187.287,104.560 187.556,106.019 186.814 C 107.415 186.104,107.662 185.920,107.191 185.941 C 107.005 185.949,106.394 186.204,105.833 186.508 M103.323 188.018 C 100.018 190.223,97.741 193.686,97.830 196.377 L 97.882 197.963 98.125 196.111 C 98.543 192.932,99.923 190.922,103.522 188.252 C 104.812 187.295,104.666 187.123,103.323 188.018 M165.433 188.704 C 165.714 190.535,165.928 190.846,165.920 189.414 C 165.917 188.819,165.755 188.083,165.560 187.778 C 165.319 187.399,165.279 187.695,165.433 188.704 M287.668 189.815 C 287.891 193.202,288.089 193.718,288.093 190.926 C 288.095 189.704,287.961 188.370,287.796 187.963 C 287.622 187.532,287.568 188.308,287.668 189.815 M235.248 189.815 C 235.242 190.222,235.380 190.889,235.556 191.296 C 235.961 192.240,235.961 191.266,235.556 190.000 C 235.317 189.256,235.257 189.219,235.248 189.815 M164.432 191.586 C 163.916 192.038,163.083 192.712,162.580 193.084 L 161.667 193.760 162.593 193.233 C 164.586 192.098,165.178 191.665,165.352 191.212 C 165.588 190.597,165.539 190.616,164.432 191.586 M236.012 193.148 C 236.013 193.759,236.141 194.759,236.296 195.370 C 236.688 196.911,236.706 195.395,236.318 193.519 C 236.060 192.273,236.011 192.214,236.012 193.148 M137.963 193.525 C 137.148 193.820,136.898 193.977,137.407 193.873 C 140.334 193.278,141.767 193.270,142.878 193.845 C 143.516 194.175,144.337 194.437,144.704 194.428 C 145.820 194.401,142.510 193.251,140.926 193.116 C 140.111 193.046,138.778 193.230,137.963 193.525 M151.401 193.607 C 152.478 193.682,154.144 193.681,155.105 193.605 C 156.066 193.529,155.185 193.468,153.148 193.469 C 151.111 193.470,150.325 193.532,151.401 193.607 M146.204 193.965 C 146.662 194.053,147.412 194.053,147.870 193.965 C 148.329 193.877,147.954 193.805,147.037 193.805 C 146.120 193.805,145.745 193.877,146.204 193.965 M287.807 194.469 C 287.791 194.787,286.952 196.704,285.943 198.728 C 284.934 200.752,284.370 202.074,284.691 201.667 C 285.662 200.434,288.212 194.814,288.018 194.336 C 287.906 194.061,287.825 194.112,287.807 194.469 M130.741 195.370 C 129.531 196.062,129.954 196.070,131.532 195.385 C 132.217 195.087,132.528 194.843,132.222 194.842 C 131.917 194.842,131.250 195.079,130.741 195.370 M127.870 196.181 C 128.227 196.274,128.810 196.274,129.167 196.181 C 129.523 196.088,129.231 196.012,128.519 196.012 C 127.806 196.012,127.514 196.088,127.870 196.181 M126.296 197.024 C 126.296 197.715,127.638 198.782,128.023 198.397 C 128.122 198.297,127.843 198.101,127.401 197.961 C 126.842 197.783,126.655 197.493,126.783 197.001 C 126.885 196.614,126.817 196.296,126.632 196.296 C 126.447 196.296,126.296 196.624,126.296 197.024 M236.540 197.685 C 236.184 199.441,235.905 201.355,236.067 200.926 C 236.658 199.357,237.098 197.407,236.956 196.987 C 236.861 196.709,236.674 197.023,236.540 197.685 M250.859 199.630 C 250.859 200.954,250.927 201.495,251.009 200.833 C 251.091 200.171,251.091 199.088,251.009 198.426 C 250.927 197.764,250.859 198.306,250.859 199.630 M129.074 198.889 C 129.481 199.064,130.065 199.207,130.370 199.207 C 130.721 199.207,130.652 199.090,130.185 198.889 C 129.778 198.714,129.194 198.571,128.889 198.571 C 128.539 198.571,128.607 198.688,129.074 198.889 M131.667 199.690 C 132.074 199.915,132.824 200.473,133.333 200.931 C 133.843 201.388,134.873 201.959,135.624 202.198 C 137.062 202.658,139.377 204.916,139.811 206.283 C 139.952 206.729,140.149 207.011,140.249 206.911 C 140.925 206.236,137.421 202.404,135.579 201.805 C 134.853 201.569,133.712 200.899,133.043 200.317 C 132.374 199.735,131.624 199.264,131.376 199.271 C 131.128 199.277,131.259 199.466,131.667 199.690 M236.047 203.889 C 236.049 205.315,236.116 205.853,236.196 205.084 C 236.276 204.316,236.275 203.149,236.193 202.492 C 236.111 201.834,236.046 202.463,236.047 203.889 M251.167 204.700 C 251.136 206.165,251.236 207.441,251.389 207.536 C 251.542 207.631,251.619 206.849,251.561 205.799 C 251.372 202.393,251.223 201.978,251.167 204.700 M282.201 204.700 C 277.669 210.703,270.066 217.030,257.037 225.641 C 249.735 230.467,246.171 232.963,246.583 232.963 C 246.772 232.963,248.241 232.020,249.847 230.867 C 251.453 229.715,255.353 227.069,258.513 224.987 C 270.087 217.362,279.038 209.777,282.893 204.327 C 284.615 201.893,284.119 202.161,282.201 204.700 M97.779 204.671 C 97.777 205.326,99.925 207.851,101.084 208.556 C 101.666 208.910,102.250 209.375,102.383 209.590 C 102.628 209.987,107.138 211.506,107.909 211.451 C 108.143 211.435,107.132 211.040,105.664 210.573 C 102.800 209.663,99.723 207.445,98.466 205.383 C 98.089 204.765,97.780 204.445,97.779 204.671 M235.656 208.148 C 235.656 209.065,235.729 209.440,235.817 208.981 C 235.905 208.523,235.905 207.773,235.817 207.315 C 235.729 206.856,235.656 207.231,235.656 208.148 M140.741 209.645 C 140.741 209.853,140.999 210.122,141.315 210.244 C 141.821 210.438,143.004 212.027,145.331 215.643 C 145.717 216.243,146.159 217.260,146.312 217.904 C 146.554 218.921,146.595 218.953,146.623 218.148 C 146.655 217.211,146.098 216.163,143.646 212.551 C 142.245 210.487,140.741 208.983,140.741 209.645 M235.251 212.407 C 235.209 213.630,235.089 215.046,234.984 215.556 L 234.794 216.481 235.190 215.573 C 235.409 215.074,235.529 213.657,235.457 212.425 L 235.328 210.185 235.251 212.407 M110.000 211.871 C 110.917 212.034,112.167 212.159,112.778 212.148 C 113.597 212.134,113.452 212.052,112.222 211.833 C 111.306 211.670,110.056 211.545,109.444 211.555 C 108.625 211.569,108.771 211.652,110.000 211.871 M115.463 212.484 C 115.921 212.572,116.671 212.572,117.130 212.484 C 117.588 212.395,117.213 212.323,116.296 212.323 C 115.380 212.323,115.005 212.395,115.463 212.484 M118.704 212.963 C 119.111 213.138,119.694 213.281,120.000 213.281 C 120.350 213.281,120.282 213.164,119.815 212.963 C 119.407 212.788,118.824 212.645,118.519 212.645 C 118.168 212.645,118.237 212.762,118.704 212.963 M121.239 213.246 C 121.004 213.396,121.530 213.519,122.407 213.519 C 123.285 213.519,123.811 213.396,123.576 213.246 C 123.341 213.097,122.815 212.974,122.407 212.974 C 122.000 212.974,121.474 213.097,121.239 213.246 M127.407 215.000 C 129.098 215.651,129.764 215.642,128.333 214.987 C 127.722 214.707,126.972 214.483,126.667 214.489 C 126.361 214.496,126.694 214.725,127.407 215.000 M131.359 216.492 C 132.412 216.973,133.449 217.668,133.663 218.035 C 133.877 218.403,134.057 218.521,134.063 218.298 C 134.079 217.698,132.967 216.819,131.344 216.148 C 129.172 215.251,129.184 215.497,131.359 216.492 M133.704 219.252 C 133.704 220.018,129.102 224.670,127.553 225.470 C 126.658 225.932,125.926 226.394,125.926 226.496 C 125.926 226.598,126.667 226.303,127.573 225.840 C 129.741 224.734,135.052 218.889,133.889 218.889 C 133.787 218.889,133.704 219.052,133.704 219.252 M146.798 222.407 C 146.797 224.241,146.860 225.037,146.937 224.178 C 147.015 223.318,147.016 221.818,146.939 220.845 C 146.863 219.871,146.799 220.574,146.798 222.407 M235.243 220.185 C 235.242 220.389,235.466 221.139,235.741 221.852 C 236.015 222.565,236.245 222.898,236.251 222.593 C 236.258 222.287,236.034 221.537,235.754 220.926 C 235.474 220.315,235.244 219.981,235.243 220.185 M236.305 223.704 C 236.275 225.695,240.867 232.222,242.298 232.222 C 242.555 232.222,242.177 231.823,241.460 231.336 C 239.849 230.241,238.368 228.145,237.202 225.309 C 236.714 224.121,236.310 223.398,236.305 223.704 M121.852 228.519 C 119.917 229.516,118.462 230.341,118.619 230.352 C 119.012 230.378,125.556 227.073,125.556 226.848 C 125.556 226.596,125.747 226.510,121.852 228.519 M144.653 230.136 C 142.699 234.173,137.638 239.261,132.664 242.190 C 129.278 244.184,128.165 245.023,130.463 243.848 C 136.291 240.870,142.624 234.948,144.976 230.279 C 145.771 228.700,146.351 227.345,146.266 227.267 C 146.181 227.189,145.455 228.480,144.653 230.136 M109.815 232.593 L 107.963 232.847 109.630 232.879 C 110.546 232.896,111.630 232.768,112.037 232.593 C 112.883 232.229,112.464 232.229,109.815 232.593 M243.333 232.587 C 243.639 232.788,244.292 232.954,244.784 232.957 C 245.973 232.965,245.671 232.754,244.074 232.461 C 243.162 232.294,242.942 232.331,243.333 232.587 M103.066 233.426 C 102.435 234.242,102.145 235.028,102.750 234.281 C 103.071 233.886,103.542 233.430,103.796 233.268 C 104.099 233.076,104.115 232.972,103.842 232.969 C 103.612 232.966,103.263 233.171,103.066 233.426 M101.976 237.778 C 101.976 239.306,102.042 239.931,102.122 239.167 C 102.202 238.403,102.202 237.153,102.122 236.389 C 102.042 235.625,101.976 236.250,101.976 237.778 M101.916 241.481 C 101.904 241.991,102.032 243.074,102.201 243.889 C 102.398 244.839,102.515 245.038,102.529 244.444 C 102.540 243.935,102.412 242.852,102.243 242.037 C 102.047 241.087,101.929 240.888,101.916 241.481 M125.926 245.741 C 125.417 246.032,125.167 246.270,125.370 246.270 C 125.574 246.270,126.157 246.032,126.667 245.741 C 127.176 245.450,127.426 245.211,127.222 245.211 C 127.019 245.211,126.435 245.450,125.926 245.741 M103.590 247.446 C 104.459 248.940,105.824 250.009,106.809 249.967 C 107.357 249.943,107.230 249.828,106.387 249.585 C 105.609 249.360,104.836 248.715,104.208 247.767 C 103.054 246.023,102.636 245.806,103.590 247.446 M122.778 247.064 C 121.963 247.456,121.713 247.672,122.222 247.546 C 123.271 247.285,125.196 246.319,124.630 246.339 C 124.426 246.346,123.593 246.672,122.778 247.064 M115.838 249.151 C 116.298 249.239,116.965 249.236,117.319 249.143 C 117.673 249.051,117.296 248.978,116.481 248.982 C 115.667 248.986,115.377 249.062,115.838 249.151 M110.926 249.630 L 107.963 249.864 110.741 249.906 C 112.269 249.929,113.852 249.805,114.259 249.630 C 114.668 249.454,114.751 249.330,114.444 249.353 C 114.139 249.376,112.556 249.501,110.926 249.630 " stroke="none" fill="#a0abd9" fill-rule="evenodd"></path><path id="path3" d="M229.776 159.413 C 229.665 159.702,229.634 160.410,229.708 160.987 C 229.816 161.844,229.874 161.748,230.023 160.463 C 230.210 158.844,230.128 158.495,229.776 159.413 M232.315 159.144 C 232.671 159.237,233.255 159.237,233.611 159.144 C 233.968 159.051,233.676 158.975,232.963 158.975 C 232.250 158.975,231.958 159.051,232.315 159.144 M237.222 160.000 C 237.833 160.156,238.750 160.283,239.259 160.283 C 240.085 160.283,240.065 160.252,239.074 160.000 C 238.463 159.844,237.546 159.717,237.037 159.717 C 236.211 159.717,236.231 159.748,237.222 160.000 M250.463 162.478 C 250.819 162.571,251.403 162.571,251.759 162.478 C 252.116 162.384,251.824 162.308,251.111 162.308 C 250.398 162.308,250.106 162.384,250.463 162.478 M254.274 162.959 C 255.300 163.110,256.690 163.518,257.364 163.866 C 258.037 164.214,258.660 164.426,258.749 164.337 C 259.116 163.970,255.127 162.596,253.820 162.639 C 252.506 162.682,252.538 162.704,254.274 162.959 M229.306 164.783 C 229.275 165.626,229.754 166.949,230.741 168.747 C 232.476 171.909,232.533 172.332,231.296 172.896 C 230.778 173.132,230.389 173.607,230.413 173.974 C 230.449 174.522,230.482 174.532,230.616 174.033 C 230.703 173.705,231.184 173.250,231.684 173.023 C 232.905 172.466,232.834 171.849,231.217 168.958 C 230.461 167.605,229.732 165.828,229.597 165.009 C 229.353 163.523,229.352 163.523,229.306 164.783 M260.000 165.000 C 260.509 165.291,261.093 165.529,261.296 165.529 C 261.500 165.529,261.250 165.291,260.741 165.000 C 260.231 164.709,259.648 164.471,259.444 164.471 C 259.241 164.471,259.491 164.709,260.000 165.000 M263.659 166.490 C 264.755 167.010,265.720 167.366,265.804 167.282 C 265.888 167.198,265.241 166.841,264.367 166.487 C 261.833 165.463,261.497 165.464,263.659 166.490 M270.361 169.665 C 276.566 172.944,282.419 177.897,284.215 181.389 C 284.555 182.051,284.924 182.593,285.033 182.593 C 286.225 182.593,280.127 175.650,276.667 173.067 C 274.677 171.582,267.122 167.401,266.449 167.414 C 266.263 167.417,268.023 168.430,270.361 169.665 M230.782 175.556 C 230.741 176.441,232.948 181.991,233.229 181.709 C 233.304 181.635,232.919 180.595,232.374 179.398 C 231.829 178.201,231.258 176.639,231.105 175.926 C 230.885 174.902,230.817 174.824,230.782 175.556 M146.216 175.459 C 147.292 175.534,148.959 175.533,149.920 175.457 C 150.881 175.381,150.000 175.319,147.963 175.320 C 145.926 175.321,145.140 175.384,146.216 175.459 M243.874 175.580 C 243.499 176.187,243.798 176.220,244.815 175.684 C 245.703 175.216,245.708 175.196,244.929 175.191 C 244.483 175.188,244.008 175.363,243.874 175.580 M141.579 175.821 C 142.142 175.906,142.975 175.904,143.431 175.816 C 143.887 175.728,143.426 175.659,142.407 175.661 C 141.389 175.664,141.016 175.736,141.579 175.821 M152.504 175.818 C 152.965 175.906,153.632 175.903,153.986 175.810 C 154.340 175.717,153.963 175.645,153.148 175.649 C 152.333 175.653,152.044 175.729,152.504 175.818 M247.809 176.061 C 247.894 176.135,248.880 176.291,250.000 176.407 C 251.315 176.543,251.709 176.508,251.111 176.309 C 250.193 176.003,247.512 175.801,247.809 176.061 M157.222 176.709 C 158.324 177.052,161.216 181.102,162.746 184.444 C 163.444 185.969,165.185 188.424,165.185 187.883 C 165.185 187.678,164.685 186.880,164.074 186.111 C 163.463 185.342,162.963 184.516,162.963 184.275 C 162.963 183.712,158.657 176.984,158.051 176.599 C 157.799 176.439,157.259 176.320,156.852 176.335 C 156.338 176.355,156.452 176.469,157.222 176.709 M244.105 176.852 C 244.105 177.056,244.424 177.806,244.815 178.519 C 245.205 179.231,245.525 179.648,245.525 179.444 C 245.525 179.241,245.205 178.491,244.815 177.778 C 244.424 177.065,244.105 176.648,244.105 176.852 M254.259 177.026 C 255.481 177.167,257.118 177.494,257.895 177.752 C 258.673 178.011,259.386 178.145,259.479 178.052 C 259.819 177.712,255.281 176.668,253.679 176.717 C 252.162 176.764,252.206 176.788,254.259 177.026 M129.444 178.519 C 128.978 178.719,128.909 178.837,129.259 178.837 C 129.565 178.837,130.148 178.694,130.556 178.519 C 131.022 178.318,131.091 178.200,130.741 178.200 C 130.435 178.200,129.852 178.343,129.444 178.519 M262.629 179.002 C 263.566 179.245,264.946 179.986,265.697 180.648 C 266.448 181.310,267.174 181.852,267.309 181.852 C 267.445 181.852,267.397 181.726,267.204 181.573 C 267.010 181.420,266.269 180.770,265.556 180.129 C 264.652 179.317,263.754 178.902,262.593 178.761 L 260.926 178.559 262.629 179.002 M245.558 180.093 C 245.570 180.487,248.118 186.754,248.131 186.421 C 248.152 185.900,245.925 180.000,245.708 180.000 C 245.624 180.000,245.557 180.042,245.558 180.093 M118.889 181.876 C 117.574 182.323,117.307 182.491,118.135 182.349 C 119.638 182.091,122.293 181.159,121.481 181.174 C 121.176 181.179,120.009 181.495,118.889 181.876 M267.778 181.996 C 267.778 182.085,268.819 182.743,270.093 183.458 C 274.109 185.713,274.389 186.168,273.539 189.074 C 273.420 189.481,273.586 189.246,273.909 188.552 C 274.746 186.749,274.348 185.808,272.132 184.347 C 269.995 182.937,267.778 181.740,267.778 181.996 M114.630 182.858 C 114.222 182.956,113.548 183.351,113.130 183.735 C 112.713 184.119,111.442 184.753,110.305 185.144 C 109.168 185.535,107.760 186.132,107.175 186.470 C 105.994 187.152,106.349 187.046,110.340 185.522 C 111.851 184.945,113.219 184.258,113.381 183.996 C 113.543 183.733,114.390 183.327,115.264 183.092 C 116.768 182.688,116.200 182.478,114.630 182.858 M285.532 183.796 C 286.323 185.805,287.009 187.190,287.023 186.806 C 287.040 186.314,285.592 182.963,285.362 182.963 C 285.275 182.963,285.351 183.338,285.532 183.796 M233.731 183.704 C 233.730 184.237,234.775 186.358,234.802 185.876 C 234.809 185.746,234.571 185.080,234.274 184.394 C 233.976 183.709,233.732 183.398,233.731 183.704 M234.867 186.667 C 234.867 186.972,235.010 187.556,235.185 187.963 C 235.386 188.430,235.503 188.498,235.503 188.148 C 235.503 187.843,235.360 187.259,235.185 186.852 C 234.985 186.385,234.867 186.316,234.867 186.667 M104.054 188.095 C 100.292 190.511,98.129 193.612,98.202 196.481 C 98.240 197.923,98.248 197.912,98.515 196.097 C 98.973 192.974,101.522 189.666,104.757 187.993 C 105.400 187.660,105.926 187.309,105.926 187.213 C 105.926 186.920,105.764 186.996,104.054 188.095 M287.297 189.815 C 287.521 193.202,287.718 193.718,287.723 190.926 C 287.724 189.704,287.591 188.370,287.426 187.963 C 287.252 187.532,287.198 188.308,287.297 189.815 M165.214 189.373 C 165.196 190.038,164.752 190.824,163.981 191.557 L 162.778 192.701 163.981 191.881 C 165.173 191.069,165.806 189.734,165.436 188.812 C 165.330 188.549,165.231 188.801,165.214 189.373 M236.179 192.222 C 236.300 193.139,236.460 193.958,236.533 194.043 C 236.812 194.365,236.600 192.004,236.287 191.296 C 236.068 190.802,236.032 191.109,236.179 192.222 M271.684 192.198 C 270.205 194.331,266.879 197.373,263.644 199.550 C 262.084 200.600,260.445 201.968,260.002 202.590 C 259.559 203.212,258.544 204.053,257.747 204.460 C 256.949 204.867,256.296 205.284,256.296 205.385 C 256.296 205.904,259.355 203.913,260.084 202.921 C 260.547 202.290,262.376 200.779,264.148 199.563 C 267.182 197.481,271.687 193.174,272.584 191.497 C 273.245 190.262,272.767 190.634,271.684 192.198 M249.340 192.407 C 249.344 192.815,249.474 193.648,249.630 194.259 C 249.884 195.257,249.913 195.276,249.919 194.444 C 249.923 193.935,249.793 193.102,249.630 192.593 C 249.397 191.867,249.335 191.827,249.340 192.407 M140.741 192.866 C 141.657 192.945,142.566 193.166,142.759 193.357 C 142.953 193.548,143.276 193.704,143.478 193.704 C 143.680 193.704,143.522 193.459,143.126 193.160 C 142.708 192.844,141.709 192.638,140.741 192.669 L 139.074 192.722 140.741 192.866 M160.926 193.354 C 160.111 193.739,159.661 194.059,159.926 194.064 C 160.465 194.075,162.593 193.041,162.593 192.768 C 162.593 192.552,162.702 192.513,160.926 193.354 M151.033 193.238 C 152.314 193.310,154.314 193.309,155.477 193.236 C 156.641 193.163,155.593 193.104,153.148 193.104 C 150.704 193.105,149.752 193.165,151.033 193.238 M134.444 193.904 C 133.045 194.226,132.755 194.375,133.519 194.380 C 134.130 194.384,135.296 194.168,136.111 193.899 C 137.972 193.286,137.120 193.289,134.444 193.904 M145.838 193.595 C 146.298 193.684,146.965 193.681,147.319 193.588 C 147.673 193.495,147.296 193.423,146.481 193.427 C 145.667 193.431,145.377 193.507,145.838 193.595 M130.989 194.861 C 130.616 195.078,129.533 195.386,128.582 195.547 C 127.017 195.811,126.976 195.842,128.148 195.873 C 129.254 195.902,133.077 194.538,132.037 194.486 C 131.833 194.475,131.362 194.644,130.989 194.861 M125.926 196.794 C 125.926 197.874,126.877 198.764,128.333 199.047 L 129.444 199.264 128.333 198.841 C 126.671 198.209,126.219 197.729,126.400 196.782 C 126.490 196.311,126.420 195.926,126.245 195.926 C 126.069 195.926,125.926 196.317,125.926 196.794 M236.857 197.685 C 236.713 198.449,236.552 200.824,236.501 202.963 L 236.406 206.852 236.690 202.963 C 236.847 200.824,237.090 198.449,237.231 197.685 C 237.373 196.921,237.405 196.296,237.303 196.296 C 237.201 196.296,237.000 196.921,236.857 197.685 M285.813 198.338 C 285.474 199.048,285.274 199.630,285.367 199.630 C 285.620 199.630,286.745 197.362,286.575 197.192 C 286.495 197.112,286.152 197.628,285.813 198.338 M250.489 200.000 C 250.489 201.324,250.556 201.866,250.638 201.204 C 250.720 200.542,250.720 199.458,250.638 198.796 C 250.556 198.134,250.489 198.676,250.489 200.000 M97.852 199.074 C 97.841 199.685,97.966 200.935,98.129 201.852 C 98.348 203.081,98.431 203.227,98.445 202.407 C 98.455 201.796,98.330 200.546,98.167 199.630 C 97.948 198.400,97.866 198.255,97.852 199.074 M130.926 199.853 C 131.741 200.151,132.789 200.806,133.256 201.308 C 133.722 201.811,134.270 202.222,134.472 202.222 C 134.675 202.222,134.278 201.728,133.590 201.124 C 132.353 200.038,130.734 199.235,129.883 199.285 C 129.642 199.300,130.111 199.555,130.926 199.853 M283.345 202.500 C 279.550 208.332,271.040 215.767,258.720 224.016 C 255.248 226.341,251.149 229.126,249.611 230.206 C 247.676 231.564,246.364 232.215,245.352 232.318 L 243.889 232.468 245.314 232.530 C 246.491 232.582,247.232 232.247,249.573 230.603 C 251.132 229.509,255.248 226.711,258.720 224.387 C 272.231 215.340,281.651 206.871,284.648 201.076 C 285.560 199.312,285.074 199.843,283.345 202.500 M137.109 203.309 C 138.395 204.336,139.519 206.166,139.988 207.996 L 140.359 209.444 140.189 207.969 C 139.997 206.310,138.434 203.872,137.037 203.054 C 136.182 202.553,136.188 202.573,137.109 203.309 M250.812 205.232 C 250.711 208.705,251.221 209.042,253.894 207.268 C 255.011 206.526,255.926 205.835,255.926 205.733 C 255.926 205.631,255.003 206.161,253.876 206.909 C 251.432 208.532,251.194 208.388,251.017 205.185 L 250.883 202.778 250.812 205.232 M98.157 204.470 C 98.147 205.138,100.612 208.148,101.168 208.148 C 101.372 208.148,101.049 207.736,100.450 207.232 C 99.851 206.729,99.092 205.770,98.763 205.103 C 98.434 204.435,98.161 204.151,98.157 204.470 M236.027 208.519 C 236.027 209.435,236.099 209.810,236.187 209.352 C 236.276 208.894,236.276 208.144,236.187 207.685 C 236.099 207.227,236.027 207.602,236.027 208.519 M102.873 209.167 C 103.353 209.625,103.944 209.995,104.187 209.989 C 104.431 209.983,104.296 209.793,103.889 209.567 C 103.481 209.340,102.890 208.971,102.574 208.744 C 102.259 208.518,102.393 208.708,102.873 209.167 M140.370 209.967 C 140.370 210.161,140.706 210.427,141.117 210.558 C 141.528 210.688,142.205 211.407,142.621 212.157 C 143.712 214.119,145.926 217.188,145.926 216.737 C 145.926 216.526,145.354 215.603,144.654 214.687 C 143.954 213.770,143.130 212.532,142.821 211.936 C 142.250 210.832,140.370 209.321,140.370 209.967 M105.185 210.353 C 105.491 210.560,106.060 210.732,106.451 210.735 C 107.398 210.743,107.103 210.531,105.741 210.226 C 104.929 210.045,104.779 210.079,105.185 210.353 M235.674 212.963 C 235.674 214.287,235.741 214.829,235.823 214.167 C 235.906 213.505,235.906 212.421,235.823 211.759 C 235.741 211.097,235.674 211.639,235.674 212.963 M109.352 211.366 C 109.708 211.460,110.292 211.460,110.648 211.366 C 111.005 211.273,110.713 211.197,110.000 211.197 C 109.287 211.197,108.995 211.273,109.352 211.366 M112.130 211.743 C 112.588 211.831,113.338 211.831,113.796 211.743 C 114.255 211.655,113.880 211.582,112.963 211.582 C 112.046 211.582,111.671 211.655,112.130 211.743 M116.019 212.107 C 116.375 212.200,116.958 212.200,117.315 212.107 C 117.671 212.014,117.380 211.938,116.667 211.938 C 115.954 211.938,115.662 212.014,116.019 212.107 M122.593 212.957 C 123.306 213.111,124.509 213.508,125.266 213.841 C 126.023 214.173,126.857 214.440,127.118 214.436 C 127.379 214.431,126.593 214.015,125.370 213.511 C 124.148 213.008,122.731 212.614,122.222 212.637 C 121.494 212.669,121.573 212.738,122.593 212.957 M128.148 214.752 C 128.454 214.941,129.120 215.207,129.630 215.343 C 130.273 215.515,130.386 215.486,130.000 215.248 C 129.694 215.059,129.028 214.793,128.519 214.657 C 127.875 214.485,127.762 214.514,128.148 214.752 M132.037 216.369 C 132.852 216.798,133.727 217.416,133.982 217.741 C 134.397 218.270,134.422 218.263,134.214 217.669 C 134.003 217.064,131.546 215.533,130.848 215.572 C 130.687 215.581,131.222 215.940,132.037 216.369 M234.988 216.784 C 234.842 217.564,234.970 218.479,235.338 219.284 C 235.657 219.984,235.795 220.139,235.644 219.630 C 235.494 219.120,235.391 217.995,235.416 217.130 C 235.472 215.242,235.303 215.106,234.988 216.784 M146.366 222.222 C 146.322 223.750,146.200 225.417,146.096 225.926 L 145.905 226.852 146.300 225.948 C 146.517 225.450,146.639 223.784,146.570 222.244 L 146.445 219.444 146.366 222.222 M132.047 221.944 C 131.081 223.014,129.933 224.291,129.497 224.782 L 128.704 225.676 129.537 225.232 C 129.995 224.988,130.370 224.641,130.370 224.461 C 130.370 224.281,131.220 223.204,132.259 222.067 C 133.298 220.930,134.071 220.000,133.977 220.000 C 133.882 220.000,133.014 220.875,132.047 221.944 M235.959 220.926 C 235.923 221.462,236.938 224.707,237.379 225.466 C 237.586 225.821,237.755 226.028,237.755 225.926 C 237.756 225.517,235.983 220.582,235.959 220.926 M125.093 227.247 C 124.125 227.750,123.333 228.245,123.333 228.347 C 123.333 228.448,124.167 228.109,125.185 227.593 C 126.204 227.076,127.037 226.574,127.037 226.475 C 127.037 226.230,127.070 226.217,125.093 227.247 M237.778 226.512 C 237.778 227.927,242.218 232.276,243.593 232.207 C 243.756 232.199,243.389 231.929,242.778 231.607 C 241.168 230.758,240.038 229.666,238.837 227.798 C 238.254 226.892,237.778 226.313,237.778 226.512 M144.083 230.301 C 142.138 234.110,138.735 237.702,134.213 240.720 C 130.876 242.947,130.445 243.302,132.097 242.462 C 134.218 241.384,139.195 237.413,141.089 235.288 C 142.737 233.438,146.209 227.567,145.860 227.218 C 145.786 227.144,144.987 228.532,144.083 230.301 M118.519 230.556 C 118.009 230.847,117.759 231.085,117.963 231.085 C 118.167 231.085,118.750 230.847,119.259 230.556 C 119.769 230.264,120.019 230.026,119.815 230.026 C 119.611 230.026,119.028 230.264,118.519 230.556 M115.000 231.883 C 113.981 232.276,113.630 232.505,114.218 232.390 C 115.383 232.164,117.824 231.172,117.222 231.170 C 117.019 231.169,116.019 231.490,115.000 231.883 M103.305 234.046 C 102.316 235.034,102.228 235.332,102.289 237.472 C 102.351 239.637,102.365 239.675,102.478 237.963 C 102.671 235.051,102.902 234.471,104.177 233.694 C 104.833 233.293,105.149 232.965,104.879 232.964 C 104.609 232.964,103.900 233.450,103.305 234.046 M109.167 233.224 C 109.625 233.313,110.375 233.313,110.833 233.224 C 111.292 233.136,110.917 233.064,110.000 233.064 C 109.083 233.064,108.708 233.136,109.167 233.224 M102.635 243.815 C 102.595 244.782,103.489 247.037,103.911 247.037 C 104.015 247.037,103.897 246.662,103.648 246.204 C 103.400 245.745,103.080 244.787,102.937 244.074 C 102.702 242.900,102.674 242.876,102.635 243.815 M126.852 244.831 C 124.815 245.823,123.296 246.642,123.476 246.650 C 123.947 246.674,130.741 243.421,130.741 243.172 C 130.741 242.912,131.179 242.725,126.852 244.831 M120.810 247.290 C 119.932 247.601,119.278 247.920,119.358 248.000 C 119.527 248.169,122.963 247.041,122.963 246.817 C 122.963 246.585,122.542 246.678,120.810 247.290 M115.994 248.527 C 114.912 248.685,113.931 248.909,113.814 249.025 C 113.526 249.313,117.411 248.851,118.333 248.487 C 119.228 248.134,118.621 248.145,115.994 248.527 M109.907 249.527 C 110.569 249.609,111.653 249.609,112.315 249.527 C 112.977 249.445,112.435 249.378,111.111 249.378 C 109.787 249.378,109.245 249.445,109.907 249.527 " stroke="none" fill="#7c8ccc" fill-rule="evenodd"></path><path id="path4" d="M229.345 162.593 C 229.345 163.306,229.421 163.597,229.515 163.241 C 229.608 162.884,229.608 162.301,229.515 161.944 C 229.421 161.588,229.345 161.880,229.345 162.593 M277.407 209.815 C 276.508 210.731,275.855 211.481,275.957 211.481 C 276.059 211.481,276.878 210.731,277.778 209.815 C 278.677 208.898,279.330 208.148,279.228 208.148 C 279.126 208.148,278.307 208.898,277.407 209.815 M106.024 233.229 C 106.587 233.314,107.420 233.312,107.875 233.224 C 108.331 233.136,107.870 233.066,106.852 233.069 C 105.833 233.072,105.461 233.144,106.024 233.229 M107.130 249.515 C 107.486 249.608,108.069 249.608,108.426 249.515 C 108.782 249.421,108.491 249.345,107.778 249.345 C 107.065 249.345,106.773 249.421,107.130 249.515 " stroke="none" fill="#8694d1" fill-rule="evenodd"></path></g></svg>